<?xml version="1.0" encoding="UTF-8"?> <svg xmlns="http://www.w3.org/2000/svg" xmlns:xlink="http://www.w3.org/1999/xlink" width="86" height="52" viewBox="0 0 86 52"><defs><style>.a{fill:#fff;}.b{clip-path:url(#a);}.c{fill:#0fc787;}.d{fill:#ff542e;}.e{fill:#0b875c;}</style><clipPath id="a"><rect class="a" width="86" height="52" transform="translate(0 -0.122)"></rect></clipPath></defs><g class="b" transform="translate(0 0.122)"><path class="c" d="M20.916,3.314Q17.824,0,12,0T3.09,3.314Q0,6.628,0,12.676v26.5q0,6.051,3.09,9.364T12,51.855q5.824,0,8.913-3.312t3.09-9.364V33.189a.51.51,0,0,0-.51-.511H16.611a.51.51,0,0,0-.51.511v6.494q0,4.97-4.1,4.97t-4.1-4.97V12.171Q7.908,7.2,12,7.2t4.1,4.968v6.67a.51.51,0,0,0,.828.4l2.8-2.234a.511.511,0,0,1,.635,0L23.18,19.25a.51.51,0,0,0,.828-.4V12.675q0-6.049-3.09-9.362"></path><path class="d" d="M55.761,63.258l-3.449,2.751a.511.511,0,0,0-.193.4v7.224a.51.51,0,0,0,.51.511h6.9a.51.51,0,0,0,.51-.511V66.409a.511.511,0,0,0-.193-.4L56.4,63.258a.508.508,0,0,0-.635,0" transform="translate(-36.033 -43.656)"></path><path class="e" d="M100.221,41.888a4.288,4.288,0,0,1-.983-3.013V29.953a4.284,4.284,0,0,1,.983-3.013,4.345,4.345,0,0,1,5.706,0,4.284,4.284,0,0,1,.983,3.013V31.58a.128.128,0,0,1-.128.128h-2.207a.128.128,0,0,1-.128-.128V29.787q0-1.541-1.3-1.542t-1.3,1.542v9.277q0,1.519,1.3,1.518t1.3-1.518V36.653a.128.128,0,0,1,.128-.128h2.207a.128.128,0,0,1,.128.128v2.221a4.282,4.282,0,0,1-.983,3.013,4.347,4.347,0,0,1-5.706,0Z" transform="translate(-68.607 -17.886)"></path><path class="e" d="M132.526,37.745l-1.161-8.21h-.048l-1.136,8.21Zm-2.733-11.1H133.1a.128.128,0,0,1,.126.107L135.887,43.1a.128.128,0,0,1-.126.149h-2.343a.128.128,0,0,1-.127-.11l-.457-3.188V40h-2.96l-.458,3.142a.128.128,0,0,1-.127.11h-2.154a.128.128,0,0,1-.127-.149l2.659-16.353a.128.128,0,0,1,.127-.107Z" transform="translate(-87.805 -18.418)"></path><path class="e" d="M163.478,33.756a1.559,1.559,0,0,0,1.172-.4A1.912,1.912,0,0,0,165.042,32V30.719a2.112,2.112,0,0,0-.32-1.3,1.206,1.206,0,0,0-1.006-.4H162.53v4.746h.948Zm-3.552-6.99a.128.128,0,0,1,.128-.128h3.732a3.981,3.981,0,0,1,2.937.937,3.964,3.964,0,0,1,.924,2.883v1.02q0,2.586-1.705,3.274V34.8a2.034,2.034,0,0,1,1.338,1.163,5.87,5.87,0,0,1,.39,2.349V41.23a11.021,11.021,0,0,0,.048,1.151,2.829,2.829,0,0,0,.164.69.128.128,0,0,1-.117.176h-2.277a.254.254,0,0,1-.244-.176,3.632,3.632,0,0,1-.131-.583,11.258,11.258,0,0,1-.047-1.282V38.169a2.581,2.581,0,0,0-.367-1.589,1.554,1.554,0,0,0-1.267-.451h-.9v6.99a.128.128,0,0,1-.128.128h-2.349a.128.128,0,0,1-.128-.128V26.766Z" transform="translate(-110.564 -18.416)"></path><path class="e" d="M194.941,40.874a1.3,1.3,0,0,0,1.018-.368,1.9,1.9,0,0,0,.331-1.27V37.789a2.408,2.408,0,0,0-.39-1.577,1.653,1.653,0,0,0-1.29-.439h-1.161v5.1h1.492Zm-.474-7.474a1.561,1.561,0,0,0,1.172-.4,1.909,1.909,0,0,0,.391-1.353v-.925a2.112,2.112,0,0,0-.32-1.3,1.206,1.206,0,0,0-1.006-.4h-1.255V33.4h1.018Zm-3.623-6.634a.128.128,0,0,1,.128-.128h3.8a3.982,3.982,0,0,1,2.937.937,3.968,3.968,0,0,1,.924,2.883v.664a4.579,4.579,0,0,1-.414,2.088,2.437,2.437,0,0,1-1.267,1.163v.047q1.942.665,1.942,3.464v1.424a3.535,3.535,0,0,1-3.954,3.939h-3.969a.128.128,0,0,1-.128-.128V26.766Z" transform="translate(-131.939 -18.416)"></path><path class="e" d="M226.532,38.942V29.879q0-1.637-1.35-1.636t-1.349,1.636v9.064q0,1.637,1.349,1.637T226.532,38.942Zm-4.286,2.919a4.352,4.352,0,0,1-1.018-3.085V30.044a4.352,4.352,0,0,1,1.018-3.084,4.5,4.5,0,0,1,5.872,0,4.352,4.352,0,0,1,1.018,3.084v8.732a4.351,4.351,0,0,1-1.018,3.085,4.5,4.5,0,0,1-5.872,0Z" transform="translate(-152.944 -17.884)"></path><path class="e" d="M258.508,26.638a.128.128,0,0,0-.128.128V36.58h-.047l-2.509-9.845a.128.128,0,0,0-.123-.1h-3.041a.128.128,0,0,0-.128.128V43.12a.128.128,0,0,0,.128.128h2.065a.128.128,0,0,0,.128-.128v-12h.048L258,43.153a.128.128,0,0,0,.123.1h2.45a.128.128,0,0,0,.128-.128V26.766a.128.128,0,0,0-.128-.128h-2.067Z" transform="translate(-174.586 -18.416)"></path><path class="e" d="M99.366,88.32h2.349a.128.128,0,0,1,.128.128v6.634h2.794V88.448a.128.128,0,0,1,.128-.128h2.349a.128.128,0,0,1,.128.128V104.8a.128.128,0,0,1-.128.128h-2.349a.128.128,0,0,1-.128-.128V97.455h-2.794V104.8a.128.128,0,0,1-.128.128H99.366a.128.128,0,0,1-.128-.128V88.448A.128.128,0,0,1,99.366,88.32Z" transform="translate(-68.607 -61.059)"></path><path class="e" d="M129.637,88.32h2.252a.128.128,0,0,1,.127.116l1.149,12.649h.048l1.22-12.65a.128.128,0,0,1,.127-.116h2.609a.128.128,0,0,1,.127.116l1.22,12.65h.048l1.149-12.649a.129.129,0,0,1,.127-.116h1.991a.129.129,0,0,1,.127.141L140.3,104.814a.128.128,0,0,1-.127.115h-3.013a.128.128,0,0,1-.127-.115l-1.172-11.084h-.047l-1.172,11.084a.127.127,0,0,1-.127.115h-3.227a.128.128,0,0,1-.127-.115l-1.655-16.353a.129.129,0,0,1,.127-.141Z" transform="translate(-89.535 -61.059)"></path><path class="e" d="M178.293,102.556a1.3,1.3,0,0,0,1.018-.368,1.893,1.893,0,0,0,.331-1.27V99.471a2.409,2.409,0,0,0-.39-1.578,1.653,1.653,0,0,0-1.29-.439H176.8v5.1h1.492Zm-.474-7.474a1.56,1.56,0,0,0,1.172-.4,1.908,1.908,0,0,0,.391-1.353V92.4a2.107,2.107,0,0,0-.32-1.306,1.206,1.206,0,0,0-1.006-.4H176.8v4.39h1.018ZM174.2,88.448a.128.128,0,0,1,.128-.128h3.8a3.334,3.334,0,0,1,3.86,3.82V92.8a4.579,4.579,0,0,1-.414,2.088,2.437,2.437,0,0,1-1.267,1.163V96.1q1.942.665,1.942,3.464v1.424a3.535,3.535,0,0,1-3.955,3.939h-3.969a.128.128,0,0,1-.128-.128V88.448Z" transform="translate(-120.429 -61.059)"></path></g></svg> 